<svg xmlns="http://www.w3.org/2000/svg" version="1.1" xmlns:xlink="http://www.w3.org/1999/xlink" width="512" height="512" x="0" y="0" viewBox="0 0 25 24" style="enable-background:new 0 0 512 512" xml:space="preserve" class=""><g><path fill="#ac4763" fill-rule="evenodd" d="M12.5 22c5.523 0 10-4.477 10-10s-4.477-10-10-10-10 4.477-10 10 4.477 10 10 10zm4.703-7.58-1.188-1.19c-.396-.398-1.188-.398-1.584 0l-.792.793c-1.421-.202-2.97-1.786-3.169-3.175l.792-.794c.396-.397.397-1.19 0-1.587L10.067 7.32c-.396-.396-1.18-.442-1.577-.045-.792.794-.99 1.39-.99 2.183 0 1.19.198 2.58 2.574 4.96C12.451 16.802 13.441 17 15.024 17c.406 0 1.413-.224 2.179-.992.396-.397.396-1.191 0-1.588z" clip-rule="evenodd" opacity="1" data-original="#000000" class=""></path></g></svg>